# xmcd
# 
# Track frame offsets:
#     150
#     19377
#     30970
#     44822
#     62769
#     74460
#     84921
#     104663
#     121194
#     138645
# 
# Disc length: 2092
# 
# Revision: 0
# Processed by: cddbd v1.5.2PL0 Copyright (c) Steve Scherf et al.
# Submitted via: fre:ac v1.0.27
# 
DISCID=8d082a0a
DTITLE=Ceramic - The Past Ain't Far
DYEAR=2010
DGENRE=College/Art Rock
TTITLE0=You Give More Than Enough
TTITLE1=Who's Gonna Guide the Night
TTITLE2=How Can I Return
TTITLE3=Angels in the Desert
TTITLE4=Blue Comet
TTITLE5=How'd You Get So Down
TTITLE6=The Past Ain't Far
TTITLE7=The Wait
TTITLE8=Velvet Coat
TTITLE9=Lose the King
EXTD=
EXTT0=
EXTT1=
EXTT2=
EXTT3=
EXTT4=
EXTT5=
EXTT6=
EXTT7=
EXTT8=
EXTT9=
PLAYORDER=
